<?xml version="1.0" encoding="UTF-8"?>
<svg id="Layer_1" xmlns="http://www.w3.org/2000/svg" version="1.1" viewBox="0 0 1330.28 267.67">
  <!-- Generator: Adobe Illustrator 30.1.0, SVG Export Plug-In . SVG Version: 2.1.1 Build 136)  -->
  <path d="M34.839,260.984h-3.602l10.817-29.334h4.003l10.817,29.334h-3.602l-2.506-7.205h-13.323s-2.602,7.205-2.602,7.205ZM44.055,235.252l-5.404,15.42h10.912s-5.509-15.42-5.509-15.42Z" fill="#fff"/>
  <path d="M100.485,260.984h-16.716v-29.334h3.602v26.132h13.114v3.202Z" fill="#fff"/>
  <path d="M144.124,260.984h-16.716v-29.334h3.602v26.132h13.114v3.202Z" fill="#fff"/>
  <path d="M174.65,260.984h-3.602v-29.334h10.912c2.859,0,5.137.705,6.814,2.106,1.649,1.353,2.506,3.46,2.506,6.309,0,2.678-.848,4.784-2.506,6.309-1.677,1.477-3.955,2.202-6.814,2.202h-7.31v12.418-.01ZM174.65,234.852v10.617h6.91c2.001,0,3.526-.429,4.603-1.306,1.048-.924,1.601-2.259,1.601-4.003,0-1.649-.581-2.954-1.706-3.898-1.077-.924-2.573-1.401-4.508-1.401h-6.91l.01-.01Z" fill="#fff"/>
  <path d="M235.711,260.984h-16.716v-29.334h3.602v26.132h13.114v3.202Z" fill="#fff"/>
  <path d="M263.73,260.984h-3.602l10.817-29.334h4.003l10.817,29.334h-3.602l-2.506-7.205h-13.314l-2.602,7.205h-.01ZM272.946,235.252l-5.404,15.42h10.912l-5.509-15.42Z" fill="#fff"/>
  <path d="M316.262,260.984h-3.602v-29.334h5.204l13.219,25.837v-25.837h3.402v29.334h-5.108l-13.114-25.732v25.732h0Z" fill="#fff"/>
  <path d="M409.068,260.984h-3.602v-26.132h-9.912v-3.202h23.426v3.202h-9.912v26.132h0Z" fill="#fff"/>
  <path d="M452.698,229.839c-.6,0-1.153-.2-1.601-.6-.477-.448-.705-1.001-.705-1.601,0-.648.229-1.201.705-1.601.448-.448,1.001-.705,1.601-.705s1.096.248,1.496.705c.448.4.705.953.705,1.601,0,.6-.248,1.153-.705,1.601-.4.4-.896.6-1.496.6ZM460.408,229.839c-.6,0-1.153-.2-1.601-.6-.477-.448-.705-1.001-.705-1.601,0-.648.229-1.201.705-1.601.448-.448,1.001-.705,1.601-.705s1.096.248,1.496.705c.448.4.705.953.705,1.601,0,.6-.248,1.153-.705,1.601-.4.4-.896.6-1.496.6ZM456.501,261.384c-3.679,0-6.404-.924-8.206-2.802-1.754-1.925-2.602-4.508-2.602-7.71v-19.223h3.507v19.223c0,2.278.553,4.079,1.706,5.404,1.201,1.277,3.05,1.906,5.613,1.906s4.451-.629,5.613-1.906c1.201-1.325,1.801-3.126,1.801-5.404v-19.223h3.507v19.223c0,3.202-.905,5.785-2.697,7.71-1.754,1.877-4.489,2.802-8.215,2.802h-.029Z" fill="#fff"/>
  <path d="M511.577,247.966l5.613,13.018h-3.907l-5.108-12.418h-8.015v12.418h-3.602v-29.334h10.912c2.859,0,5.137.705,6.814,2.106,1.649,1.353,2.506,3.46,2.506,6.309,0,1.954-.477,3.602-1.401,5.003-.886,1.353-2.154,2.306-3.812,2.907v-.01ZM500.169,245.459h6.91c2.001,0,3.526-.429,4.603-1.306,1.048-.924,1.601-2.259,1.601-4.003,0-1.649-.581-2.954-1.706-3.898-1.077-.924-2.573-1.401-4.508-1.401h-6.91v10.617h0l.01-.01Z" fill="#fff"/>
  <path d="M548.879,260.984h-3.603v-29.334h3.603v13.419l12.113-13.419h4.603l-13.018,14.124,13.714,15.22h-4.708l-12.714-14.219v14.21h.009Z" fill="#fff"/>
  <path d="M594.72,229.839c-.6,0-1.153-.2-1.601-.6-.477-.448-.705-1.001-.705-1.601,0-.648.229-1.201.705-1.601.448-.448,1.001-.705,1.601-.705s1.096.248,1.496.705c.448.4.705.953.705,1.601,0,.6-.248,1.153-.705,1.601-.4.4-.896.6-1.496.6ZM596.521,260.984h-3.603v-29.334h3.603v29.334Z" fill="#fff"/>
  <path d="M637.721,260.984h-3.707v-11.217l-10.912-18.127h4.108l8.615,14.62,8.806-14.62h4.003l-10.912,18.127v11.217h0Z" fill="#fff"/>
  <path d="M694.188,260.984h-19.023v-29.334h19.023v3.202h-15.42v9.816h13.619v3.202h-13.619v9.912h15.42v3.202Z" fill="#fff"/>
  <path d="M764.399,260.984h-8.11v-29.334h8.11c4.851,0,8.615,1.306,11.217,3.898,2.602,2.554,3.907,6.157,3.907,10.817s-1.306,8.282-3.907,10.817c-2.602,2.554-6.357,3.803-11.217,3.803ZM759.891,234.852v22.93h4.403c1.525,0,3.002-.124,4.403-.4,1.401-.324,2.63-.905,3.707-1.706,1.048-.848,1.906-2.03,2.506-3.507.648-1.525,1.001-3.46,1.001-5.804,0-2.859-.496-5.137-1.496-6.814-.953-1.649-2.278-2.859-4.003-3.602-1.754-.724-3.755-1.096-6.004-1.096h-4.517Z" fill="#fff"/>
  <path d="M809.582,229.839c-.6,0-1.153-.2-1.601-.6-.477-.448-.705-1.001-.705-1.601,0-.648.229-1.201.705-1.601.448-.448,1.001-.705,1.601-.705s1.096.248,1.496.705c.448.4.705.953.705,1.601,0,.6-.248,1.153-.705,1.601-.4.4-.896.6-1.496.6ZM811.383,260.984h-3.603v-29.334h3.603v29.334Z" fill="#fff"/>
  <path d="M851.373,261.384c-1.877,0-3.679-.295-5.404-.905-1.754-.648-3.202-1.649-4.403-3.002-1.153-1.401-1.877-3.202-2.202-5.404h3.603c.248,1.601.829,2.859,1.706,3.707.924.877,2.001,1.496,3.202,1.906,1.248.353,2.506.496,3.707.496,2.049,0,3.65-.4,4.803-1.201,1.201-.848,1.801-2.154,1.801-3.898,0-1.048-.248-1.925-.705-2.602-.477-.648-1.096-1.201-1.906-1.601-.753-.4-1.601-.724-2.602-1.001-.953-.248-1.954-.524-3.002-.801-1.153-.2-2.278-.429-3.402-.705-1.077-.324-2.078-.753-3.002-1.306-.877-.524-1.601-1.248-2.202-2.202-.553-.924-.801-2.106-.801-3.507,0-1.649.4-3.107,1.201-4.308s1.906-2.125,3.307-2.802c1.449-.648,3.155-1.001,5.108-1.001,1.649,0,3.231.295,4.708.905,1.525.553,2.83,1.449,3.907,2.697,1.048,1.201,1.725,2.859,2.001,4.908h-3.402c-.276-1.325-.772-2.354-1.496-3.107-.753-.801-1.601-1.353-2.602-1.706-1.001-.324-2.049-.496-3.107-.496-2.001,0-3.555.448-4.603,1.306-1.001.801-1.496,1.906-1.496,3.307,0,1.153.324,2.049,1.001,2.697.724.677,1.649,1.182,2.802,1.496,1.201.353,2.43.677,3.707,1.001,1.201.2,2.402.477,3.603.801,1.201.353,2.259.801,3.202,1.401,1.001.6,1.801,1.401,2.402,2.402s.905,2.306.905,3.898c0,2.602-.877,4.708-2.602,6.309-1.754,1.553-4.308,2.306-7.71,2.306l-.029.01Z" fill="#fff"/>
  <path d="M900.997,260.984h-3.603v-26.132h-9.912v-3.202h23.426v3.202h-9.912v26.132h0Z" fill="#fff"/>
  <path d="M952.833,247.966l5.613,13.018h-3.907l-5.108-12.418h-8.015v12.418h-3.603v-29.334h10.912c2.859,0,5.137.705,6.814,2.106,1.649,1.353,2.506,3.46,2.506,6.309,0,1.954-.477,3.602-1.401,5.003-.886,1.353-2.154,2.306-3.812,2.907v-.01ZM941.416,245.459h6.91c2.001,0,3.526-.429,4.603-1.306,1.048-.924,1.601-2.259,1.601-4.003,0-1.649-.581-2.954-1.706-3.898-1.077-.924-2.573-1.401-4.508-1.401h-6.91v10.617h0l.009-.01Z" fill="#fff"/>
  <path d="M988.334,229.839c-.6,0-1.153-.2-1.601-.6-.477-.448-.705-1.001-.705-1.601,0-.648.229-1.201.705-1.601.448-.448,1.001-.705,1.601-.705s1.096.248,1.496.705c.448.4.705.953.705,1.601,0,.6-.248,1.153-.705,1.601-.4.4-.896.6-1.496.6ZM990.135,260.984h-3.603v-29.334h3.603v29.334Z" fill="#fff"/>
  <path d="M1031.03,260.984h-11.513v-29.334h11.112c1.649,0,3.05.2,4.203.6,1.125.353,2.049.877,2.802,1.601.648.6,1.153,1.372,1.496,2.306.324.877.496,1.801.496,2.802,0,1.754-.477,3.25-1.401,4.508-.877,1.277-2.078,1.973-3.603,2.106,2.049.2,3.631.953,4.708,2.202,1.125,1.277,1.706,2.907,1.706,4.908,0,1.353-.2,2.478-.6,3.402-.4.953-.905,1.706-1.496,2.306-.677.677-1.477,1.201-2.402,1.601-.953.4-1.906.677-2.907.801-.943.152-1.792.2-2.592.2l-.01-.01ZM1023.119,234.852v9.511h7.51c1.725,0,3.05-.4,4.003-1.201.924-.848,1.401-2.049,1.401-3.602,0-.724-.105-1.353-.295-1.906-.2-.524-.496-.953-.905-1.306-.6-.524-1.353-.905-2.202-1.096-.801-.248-1.754-.4-2.802-.4h-6.709,0ZM1023.119,247.565v10.217h9.111c.648-.048,1.325-.2,2.001-.4.724-.248,1.353-.629,1.906-1.096.4-.4.724-.905,1.001-1.496.248-.6.4-1.353.4-2.306,0-1.201-.248-2.125-.705-2.802-.477-.724-1.077-1.229-1.801-1.496-.677-.248-1.353-.429-2.001-.496-.677-.048-1.201-.105-1.601-.105h-8.301l-.01-.019Z" fill="#fff"/>
  <path d="M1076.194,229.839c-.6,0-1.153-.2-1.601-.6-.477-.448-.705-1.001-.705-1.601,0-.648.229-1.201.705-1.601.448-.448,1.001-.705,1.601-.705s1.096.248,1.496.705c.448.4.705.953.705,1.601,0,.6-.248,1.153-.705,1.601-.4.4-.896.6-1.496.6ZM1083.904,229.839c-.6,0-1.153-.2-1.601-.6-.477-.448-.705-1.001-.705-1.601,0-.648.229-1.201.705-1.601.448-.448,1.001-.705,1.601-.705s1.096.248,1.496.705c.448.4.705.953.705,1.601,0,.6-.248,1.153-.705,1.601-.4.4-.896.6-1.496.6ZM1079.997,261.384c-3.679,0-6.404-.924-8.206-2.802-1.754-1.925-2.602-4.508-2.602-7.71v-19.223h3.507v19.223c0,2.278.553,4.079,1.706,5.404,1.201,1.277,3.05,1.906,5.613,1.906s4.451-.629,5.613-1.906c1.201-1.325,1.801-3.126,1.801-5.404v-19.223h3.507v19.223c0,3.202-.905,5.785-2.697,7.71-1.754,1.877-4.489,2.802-8.215,2.802h-.029Z" fill="#fff"/>
  <path d="M1131.079,260.984h-3.603v-26.132h-9.912v-3.202h23.426v3.202h-9.912v26.132h0Z" fill="#fff"/>
  <path d="M1176.606,229.839c-.6,0-1.153-.2-1.601-.6-.477-.448-.705-1.001-.705-1.601,0-.648.229-1.201.705-1.601.448-.448,1.001-.705,1.601-.705s1.096.248,1.496.705c.448.4.705.953.705,1.601,0,.6-.248,1.153-.705,1.601-.4.4-.896.6-1.496.6ZM1184.316,229.839c-.6,0-1.153-.2-1.601-.6-.477-.448-.705-1.001-.705-1.601,0-.648.229-1.201.705-1.601.448-.448,1.001-.705,1.601-.705s1.096.248,1.496.705c.448.4.705.953.705,1.601,0,.6-.248,1.153-.705,1.601-.4.4-.896.6-1.496.6ZM1180.409,261.384c-2.278,0-4.279-.4-6.004-1.201-1.677-.801-3.078-1.906-4.203-3.307-1.153-1.449-2.001-3.107-2.602-4.908-.553-1.801-.801-3.707-.801-5.709s.248-3.898.801-5.709c.6-1.801,1.449-3.402,2.602-4.803,1.125-1.401,2.526-2.506,4.203-3.307,1.725-.801,3.726-1.201,6.004-1.201s4.355.4,6.109,1.201c1.725.801,3.126,1.906,4.203,3.307,1.125,1.401,1.954,3.002,2.506,4.803.6,1.801.905,3.707.905,5.709s-.295,3.898-.905,5.709c-.553,1.801-1.372,3.46-2.506,4.908-1.077,1.401-2.478,2.506-4.203,3.307-1.754.801-3.774,1.201-6.109,1.201ZM1180.409,258.182c2.202,0,4.031-.496,5.509-1.496,1.525-1.048,2.697-2.506,3.507-4.308s1.201-3.831,1.201-6.109-.4-4.251-1.201-6.004c-.801-1.801-1.973-3.202-3.507-4.203-1.477-1.048-3.307-1.601-5.509-1.601s-3.984.553-5.509,1.601c-1.477,1.001-2.602,2.402-3.402,4.203-.753,1.754-1.096,3.755-1.096,6.004s.353,4.308,1.096,6.109c.801,1.801,1.925,3.25,3.402,4.308,1.525,1.001,3.355,1.496,5.509,1.496Z" fill="#fff"/>
  <path d="M1237.438,247.966l5.613,13.018h-3.907l-5.108-12.418h-8.015v12.418h-3.603v-29.334h10.912c2.859,0,5.137.705,6.814,2.106,1.649,1.353,2.506,3.46,2.506,6.309,0,1.954-.477,3.602-1.401,5.003-.886,1.353-2.154,2.306-3.812,2.907v-.01ZM1226.021,245.459h6.91c2.001,0,3.526-.429,4.603-1.306,1.048-.924,1.601-2.259,1.601-4.003,0-1.649-.581-2.954-1.706-3.898-1.077-.924-2.573-1.401-4.508-1.401h-6.91v10.617h0l.01-.01Z" fill="#fff"/>
  <path d="M1277.942,229.839c-.6,0-1.153-.2-1.601-.6-.477-.448-.705-1.001-.705-1.601,0-.648.229-1.201.705-1.601.448-.448,1.001-.705,1.601-.705s1.096.248,1.496.705c.448.4.705.953.705,1.601,0,.6-.248,1.153-.705,1.601-.4.4-.896.6-1.496.6ZM1285.652,229.839c-.6,0-1.153-.2-1.601-.6-.477-.448-.705-1.001-.705-1.601,0-.648.229-1.201.705-1.601.448-.448,1.001-.705,1.601-.705s1.096.248,1.496.705c.448.4.705.953.705,1.601,0,.6-.248,1.153-.705,1.601-.4.4-.896.6-1.496.6ZM1281.745,261.384c-3.679,0-6.404-.924-8.206-2.802-1.754-1.925-2.602-4.508-2.602-7.71v-19.223h3.507v19.223c0,2.278.553,4.079,1.706,5.404,1.201,1.277,3.05,1.906,5.613,1.906s4.451-.629,5.613-1.906c1.201-1.325,1.801-3.126,1.801-5.404v-19.223h3.507v19.223c0,3.202-.905,5.785-2.697,7.71-1.754,1.877-4.489,2.802-8.215,2.802h-.029Z" fill="#fff"/>
  <path d="M149.147,116.218L113.951,31.417l-34.29,84.811-15.668,38.655c-6.357,15.973-5.308,24.779,3.107,26.437v3.307h-28.543v-3.307c3.555-1.125,6.957-3.402,10.312-6.814,3.402-3.46,7.033-10.007,10.912-19.623L109.348,31.912c1.525-4.003,1.353-7.939-.496-11.818l-2.202-5.308,18.822-8.501,61.986,148.893c3.85,9.406,7.338,15.868,10.417,19.328,3.126,3.402,6.033,5.68,8.711,6.814v3.307h-39.046v-3.307c3.85-1.125,5.451-3.402,4.803-6.814-.677-3.46-3.002-9.912-7.005-19.328l-16.173-38.951-.019-.01Z" fill="#fff"/>
  <path d="M248.872,184.608v-3.307c3.85-1.125,6.509-3.631,7.91-7.51,1.449-3.85,2.202-10.941,2.202-21.234V40.223c0-10.417-.753-17.469-2.202-21.234-1.401-3.803-4.06-6.261-7.91-7.415v-3.307h40.857v3.307c-3.879,1.153-6.557,3.602-8.015,7.415-1.401,3.755-2.106,10.817-2.106,21.234v129.07c0,7.558,3.755,11.313,11.313,11.313h30.04c12.065,0,21.358-1.801,27.838-5.404,6.462-3.602,11.865-10.112,16.221-19.518l2.802.496-1.801,28.439h-117.147v-.01Z" fill="#fff"/>
  <path d="M495.49,187.114c-9.092,0-17.879-1.182-26.332-3.507-8.492-2.325-16.097-6.109-22.825-11.313-6.681-5.204-12.065-12.113-16.116-20.729-4.003-8.663-6.004-19.328-6.004-31.946V40.223c0-10.417-.753-17.469-2.202-21.234-1.401-3.803-4.003-6.261-7.805-7.415v-3.307h40.752v3.307c-3.679,1.153-6.281,3.602-7.805,7.415-1.477,3.755-2.202,10.817-2.202,21.234v77.901c0,15.62,2.602,28.115,7.805,37.454,5.204,9.283,12.237,15.992,21.129,20.128,8.863,4.079,18.775,6.109,29.744,6.109,5.327,0,10.941-1.001,16.821-3.002,5.861-2.001,11.37-5.432,16.526-10.312,5.137-4.851,9.311-11.417,12.513-19.623,3.202-8.263,4.803-18.527,4.803-30.745V50.334c0-9.54-.705-16.945-2.106-22.225-1.353-5.327-3.278-9.159-5.804-11.513-2.478-2.325-5.585-4.003-9.311-5.003v-3.307h31.241v3.307c-3.679,1.153-6.281,3.602-7.805,7.415-1.477,3.755-2.202,10.817-2.202,21.234v77.101c0,16.821-2.859,30.392-8.511,40.647-5.613,10.217-13.114,17.622-22.53,22.225-9.416,4.603-20.004,6.91-31.746,6.91l-.029-.01Z" fill="#fff"/>
  <path d="M620.156,184.608v-3.307c3.85-1.125,6.509-3.631,7.91-7.51,1.449-3.85,2.202-10.941,2.202-21.234V40.223c0-10.417-.753-17.469-2.202-21.234-1.401-3.803-4.06-6.261-7.91-7.415v-3.307h51.169c17.469,0,31.193,2.449,41.152,7.31,10.007,4.88,17.117,11.084,21.329,18.622,4.203,7.558,6.309,15.42,6.309,23.635,0,16.821-6.004,30.535-18.022,41.152-12.018,10.56-29.792,15.82-53.265,15.82h-17.927v37.75c0,10.293.705,17.374,2.106,21.234,1.449,3.879,4.127,6.385,8.015,7.51v3.307h-40.866ZM650.892,111.014h17.422c16.068,0,28.362-4.155,36.854-12.513,8.539-8.415,12.818-20.023,12.818-34.843,0-9.063-1.906-17.526-5.709-25.332s-9.816-14.124-18.022-18.927c-8.206-4.851-19.127-7.31-32.737-7.31-1.677,0-3.479.048-5.404.105-1.954.076-3.679.2-5.204.4v98.43h0l-.019-.01Z" fill="#fff"/>
  <path d="M790.931,184.608v-3.307c3.85-1.125,6.509-3.631,7.91-7.51,1.449-3.85,2.202-10.941,2.202-21.234V40.223c0-10.417-.753-17.469-2.202-21.234-1.401-3.803-4.06-6.261-7.91-7.415v-3.307h40.857v3.307c-3.879,1.153-6.557,3.602-8.015,7.415-1.401,3.755-2.106,10.817-2.106,21.234v129.07c0,7.558,3.755,11.313,11.313,11.313h30.04c12.065,0,21.358-1.801,27.838-5.404,6.462-3.602,11.865-10.112,16.221-19.518l2.802.496-1.801,28.439h-117.147v-.01Z" fill="#fff"/>
  <path d="M1052.921,116.218l-35.196-84.811-34.29,84.811-15.668,38.655c-6.357,15.973-5.308,24.779,3.107,26.437v3.307h-28.543v-3.307c3.555-1.125,6.957-3.402,10.312-6.814,3.402-3.46,7.033-10.007,10.912-19.623l49.558-122.961c1.525-4.003,1.353-7.939-.496-11.818l-2.202-5.308,18.822-8.511,61.986,148.893c3.85,9.406,7.338,15.868,10.417,19.328,3.126,3.402,6.033,5.68,8.711,6.814v3.307h-39.046v-3.307c3.85-1.125,5.451-3.402,4.803-6.814-.677-3.46-3.002-9.912-7.005-19.328l-16.173-38.951h-.01Z" fill="#fff"/>
  <path d="M1285.719,186.609l-118.653-154.401v110.343c0,9.568.648,16.926,2.001,22.13,1.325,5.204,3.307,9.063,5.909,11.513,2.602,2.402,5.737,4.108,9.406,5.108v3.307h-31.441v-3.307c3.85-1.125,6.509-3.631,7.91-7.51,1.401-3.85,2.106-10.941,2.106-21.234V40.223c0-10.417-.953-17.469-2.802-21.234-1.801-3.803-5.204-6.261-10.217-7.415v-3.307h24.636l110.142,142.584V50.334c0-9.54-.705-16.945-2.106-22.225-1.353-5.327-3.278-9.159-5.804-11.513-2.478-2.325-5.661-4.003-9.511-5.003v-3.307h31.736v3.307c-3.879,1.153-6.557,3.602-8.015,7.415-1.401,3.755-2.106,10.817-2.106,21.234v146.386h-3.202l.009-.019Z" fill="#fff"/>
</svg>